PathFileType	4	(X/Y/Z)	./resultDataOpenSim/trcMotMarkerGrf/sub09/qtm-02-03.trc
DataRate	CameraRate	NumFrames	NumMarkers	Units	OrigDataRate	OrigDataStartFrame	OrigNumFrames
250.000000	250.000000	9	24	m	250.000000	355	472
Frame#	Time	L.Toe.Tip			R.Toe.Tip			L.Ankle.Lat			R.Ankle.Lat			L.Ankle.Med			R.Ankle.Med			L.Heel			R.Heel			L.Knee.Lat			R.Knee.Lat			L.Knee.Med			R.Knee.Med			L.Thigh.Upper			R.Thigh.Upper			L.ASIS			R.ASIS			V.Sacral			L.Acromium			R.Acromium			C7			L.Elbow			R.Elbow			L.Wrist.Lat			R.Wrist.Lat
		X1	Y1	Z1	X2	Y2	Z2	X3	Y3	Z3	X4	Y4	Z4	X5	Y5	Z5	X6	Y6	Z6	X7	Y7	Z7	X8	Y8	Z8	X9	Y9	Z9	X10	Y10	Z10	X11	Y11	Z11	X12	Y12	Z12	X13	Y13	Z13	X14	Y14	Z14	X15	Y15	Z15	X16	Y16	Z16	X17	Y17	Z17	X18	Y18	Z18	X19	Y19	Z19	X20	Y20	Z20	X21	Y21	Z21	X22	Y22	Z22	X23	Y23	Z23	X24	Y24	Z24

355	1.416	0.8090158	0.11734962	-0.041130739	1.0444998	0.039297057	0.090572251	0.74657948	0.25556127	-0.090010621	0.89620994	0.054613445	0.12498483	0.76605784	0.24867975	0.0066254056	0.90657679	0.094299549	0.034039982	0.66825696	0.28330452	-0.052260434	0.82647981	0.036038537	0.076131081	1.0697353	0.50440938	-0.080542064	0.99170176	0.50229175	0.18816822	1.0657825	0.49443845	0.046388991	0.97170057	0.4934598	0.061448865	0.91448048	0.88838498	-0.11698293	0.9063159	0.90324693	0.25134699	0.98315323	0.97863697	-0.061363757	0.992341	0.98850603	0.17635253	0.81787639	1.0366707	0.057752503	0.9756208	1.4333519	-0.114992	0.95978126	1.4461386	0.21540333	0.90328435	1.488862	0.04894163	0.81918619	1.0971105	-0.16970657	0.82368893	1.1059799	0.31300591	0.95631254	0.86994732	-0.19587674	1.0005939	0.89331906	0.31636819
356	1.42	0.82701759	0.11608071	-0.042889096	1.0445907	0.039252177	0.090544773	0.76041685	0.25281422	-0.089409662	0.89625803	0.054813581	0.12481399	0.7808668	0.24529099	0.00705747	0.90682623	0.094376942	0.033888308	0.68130289	0.27783511	-0.050770852	0.82659628	0.036370935	0.075877239	1.0795316	0.50725124	-0.080129433	0.9930318	0.50218039	0.18811813	1.0737945	0.49661516	0.04635152	0.97284302	0.49351931	0.061146957	0.92016269	0.89008694	-0.11728387	0.91096337	0.90386819	0.25122869	0.9891205	0.97988654	-0.061227938	0.99752142	0.98922845	0.17663467	0.8232019	1.0374906	0.057711401	0.98074082	1.4341836	-0.11508249	0.96529599	1.4472569	0.21530835	0.90859115	1.4897611	0.048913936	0.82319294	1.0985535	-0.16965809	0.82937221	1.1069189	0.31328844	0.95956682	0.8709757	-0.19672147	1.0075129	0.89514313	0.31593324
357	1.424	0.84491326	0.11467852	-0.044483855	1.0446788	0.039224106	0.090505016	0.77438345	0.24984924	-0.088831863	0.89631554	0.055008934	0.12464775	0.79593608	0.24177848	0.0074014262	0.90706084	0.094474146	0.033744858	0.694548	0.27210037	-0.049287575	0.82681057	0.036749407	0.075634523	1.0890355	0.51007274	-0.079818634	0.99442459	0.50211558	0.18812481	1.0817855	0.49874377	0.046270833	0.97420234	0.49354358	0.060878377	0.92595273	0.89164904	-0.11774528	0.91569121	0.90446997	0.25107241	0.99503747	0.98106204	-0.061083341	1.0027094	0.98990182	0.17689942	0.82852317	1.0382839	0.057691325	0.98586236	1.4349649	-0.11516241	0.97078805	1.4483187	0.21521414	0.91390847	1.4906071	0.048890172	0.82721866	1.09994	-0.16962166	0.83508569	1.1078089	0.31360671	0.96286194	0.8719415	-0.19756895	1.0144021	0.89688882	0.31549538
358	1.428	0.86274934	0.11319555	-0.045924441	1.0447527	0.039201992	0.090460905	0.78846787	0.24664908	-0.088257618	0.89638111	0.05519556	0.12449092	0.81132858	0.23815531	0.0076438391	0.90730328	0.09458883	0.033582613	0.70806248	0.26616475	-0.04787511	0.82705577	0.037123477	0.075499735	1.0983228	0.51285119	-0.079582957	0.99585281	0.50207926	0.18816152	1.0897109	0.50081105	0.04613837	0.97563113	0.49361575	0.060656855	0.93169212	0.89305765	-0.11826535	0.92054373	0.90505925	0.25085999	1.0008199	0.98217528	-0.06089437	1.0079055	0.99053187	0.17715514	0.83384745	1.039022	0.057661537	0.99098709	1.435696	-0.11523478	0.97625962	1.4493222	0.21512112	0.9192196	1.4914012	0.048881376	0.83127626	1.1012631	-0.16959705	0.84083042	1.1086441	0.31394868	0.96619488	0.87284737	-0.19842207	1.0212661	0.8985548	0.31505726
359	1.432	0.88054314	0.11167425	-0.04720302	1.0448036	0.039173124	0.09042003	0.80265079	0.24320806	-0.087666827	0.89645502	0.055375422	0.12433784	0.8267892	0.23443144	0.0078801374	0.90753495	0.09472605	0.033419081	0.72187372	0.26011792	-0.046569929	0.82734838	0.037437638	0.075530747	1.1074502	0.51554978	-0.079410783	0.997285	0.50204118	0.18820756	1.0977503	0.50288894	0.045991344	0.97708225	0.49374936	0.060538356	0.93730297	0.89432064	-0.11879539	0.92554692	0.90564277	0.25059007	1.0064867	0.98322897	-0.060667685	1.0131072	0.99111663	0.17740516	0.83913815	1.0396777	0.05759685	0.99611278	1.4363751	-0.1153051	0.98171224	1.4502659	0.21502917	0.92449249	1.4921664	0.048898491	0.83537984	1.1025187	-0.1695788	0.84659855	1.1094131	0.31429759	0.96955764	0.87370431	-0.19928103	1.0281256	0.90014447	0.31461461
360	1.436	0.89834407	0.11012494	-0.048307156	1.0448318	0.039129522	0.090384946	0.81692495	0.2395379	-0.087056805	0.89653393	0.055556513	0.12418064	0.84204371	0.23061573	0.0082132889	0.90776114	0.094914164	0.033300635	0.73592596	0.25403589	-0.045328764	0.82769858	0.037687375	0.075669495	1.1164363	0.51812787	-0.079285144	0.99870448	0.50198072	0.18826557	1.106412	0.50514106	0.045934693	0.97869341	0.49381196	0.060666985	0.9427835	0.89544947	-0.11932469	0.93069835	0.90622931	0.25026699	1.012099	0.98422005	-0.060432724	1.0183091	0.99164992	0.17764424	0.84436782	1.0402547	0.057485951	1.0012362	1.4370002	-0.11537397	0.98715134	1.4511494	0.21494337	0.92969374	1.4929382	0.048941245	0.8395354	1.1037025	-0.16955917	0.85238601	1.1101104	0.31464719	0.9729482	0.87451767	-0.20014249	1.0349964	0.90166156	0.3141633
361	1.44	0.91632221	0.10854988	-0.049253314	1.0448582	0.039077118	0.090351419	0.83130184	0.23566203	-0.086436677	0.89661556	0.055746908	0.12401983	0.85711187	0.22672052	0.008641387	0.90807211	0.095178995	0.033249048	0.75012818	0.24793799	-0.044091211	0.82803364	0.037924877	0.075754585	1.1252776	0.52056785	-0.079184672	1.0001159	0.50190831	0.18835448	1.1162143	0.50771663	0.046074371	0.98059549	0.49362016	0.061196586	0.94816262	0.89645257	-0.11985463	0.93596944	0.90682814	0.24988966	1.0176979	0.98514214	-0.06021385	1.023505	0.99213033	0.17786223	0.84961732	1.0407696	0.057300559	1.0063587	1.4375686	-0.11544062	0.99258326	1.4519727	0.21486947	0.93481722	1.4937254	0.048975367	0.84373465	1.1048147	-0.1695316	0.85818714	1.1107399	0.31499704	0.97637144	0.87528186	-0.2010035	1.0418657	0.90311043	0.31370218
362	1.444	0.93464761	0.10696102	-0.050073018	1.0449226	0.039028513	0.090311366	0.84580155	0.23160649	-0.085815149	0.89670295	0.055949913	0.12386322	0.87214456	0.22276432	0.009113994	0.9085365	0.095498781	0.033248195	0.76444863	0.24178066	-0.042869171	0.8282872	0.038190238	0.075636246	1.1339676	0.52287906	-0.079100344	1.0015277	0.50185016	0.18847854	1.126989	0.51053916	0.04638164	0.98269479	0.49315968	0.062060471	0.95347066	0.89733542	-0.12038513	0.9413174	0.90743811	0.24946462	1.0232998	0.98598351	-0.060021191	1.0286929	0.99256255	0.17805173	0.85505316	1.0412301	0.056996684	1.0114852	1.4380763	-0.11550565	0.99800871	1.4527337	0.21480713	0.93990797	1.4944783	0.048958735	0.84796208	1.1058574	-0.16949129	0.86399355	1.1113083	0.31534636	0.97983031	0.87598803	-0.2018627	1.0487026	0.90449575	0.31323073
363	1.448	0.95324985	0.10534875	-0.050762617	1.0450685	0.038985306	0.090254095	0.86044178	0.22739173	-0.085197865	0.8968032	0.056163557	0.12371336	0.88720942	0.21876522	0.0096095757	0.90904847	0.095804852	0.033246703	0.77896166	0.23547977	-0.041742224	0.82847176	0.038467872	0.075271679	1.1425044	0.5250644	-0.079033165	1.0029335	0.50181502	0.18861382	1.1377822	0.5132848	0.046672359	0.98474173	0.49263812	0.06291808	0.95873114	0.89810232	-0.12091206	0.9466757	0.90802088	0.24904234	1.0289079	0.98673481	-0.05985838	1.033875	0.99295078	0.17821409	0.86073458	1.0416421	0.056583132	1.0166203	1.438521	-0.1155699	1.003425	1.4534284	0.21475269	0.94504103	1.4951185	0.04890327	0.85220954	1.1068262	-0.16944279	0.86980009	1.1118139	0.31569097	0.98332344	0.87662831	-0.20271952	1.0554904	0.90581526	0.31275107
